# xmcd
# 
# Track frame offsets:
#     150
#     18096
#     36581
#     58540
#     78411
#     92860
#     109735
#     120260
#     140101
#     160516
#     190373
#     209076
#     227766
#     247991
#     266936
#     283448
#     302368
# 
# Disc length: 4282
# 
# Revision: 1
# Processed by: cddbd v1.5.2PL0 Copyright (c) Steve Scherf et al.
# Submitted via: fre:ac v1.1beta2
# 
DISCID=f310b811
DTITLE=Various Artist - A Whiter Shade Of Blues Bielszy Odcieñ Bluesa
DYEAR=1998
DGENRE=Blues
TTITLE0=Picture This - Debbie Davies
TTITLE1=Every Woman I Know Is Crazy - The Shadows
TTITLE2=Just Let Go - Coco Montoya
TTITLE3=To Hot To Hangle - Duke Robilland
TTITLE4=Louisiana Love Shack - Pat Boyack
TTITLE5=Keep Your M
TTITLE6=Good Rocking Daddy -Marcia Ball/Lou Ann Barton Angela Strehli
TTITLE7=Bird Nest On The Ground - Doyle Bramhall
TTITLE8=If You Have To Know - Lonnie Mack& Stevie Ray Vaughan
TTITLE9=Song Fore The Sun - Ronnie Earl and the Broadcasters
TTITLE10=Suitcase Full Of Blues - Tommy Castro
TTITLE11=Drive To Survive - Jimmy Thackery and the Drivers
TTITLE12=Madison Blues - George Thorogood and the Destroyers
TTITLE13=Texas Cadillac - The Smockin~ Joe Band
TTITLE14=Turn It On Turn It Up - Roomful Of Blues
TTITLE15=Living The Blues - Tracy Nelson
TTITLE16=I"ts My Live Baby - Johnny Winter
EXTD=
EXTT0=
EXTT1=
EXTT2=
EXTT3=
EXTT4=
EXTT5=
EXTT6=
EXTT7=
EXTT8=
EXTT9=
EXTT10=
EXTT11=
EXTT12=
EXTT13=
EXTT14=
EXTT15=
EXTT16=
PLAYORDER=
